<svg height="100" viewBox="0 0 500.00001 100" width="500" xmlns="http://www.w3.org/2000/svg"><g fill="#fff" transform="matrix(.18291698 0 0 .18291698 171.84584 -65.547055)"><path d="m-573.9097 483.04887 10.05156-17.34171c6.18558-10.82476 19.99268-14.46984 30.81744-8.28426s14.46983 19.99267 8.28425 30.81743l-96.64965 167.34197h69.91912c22.64363 0 35.34616 26.62008 25.51551 45.06635h-204.89726c-12.48162 0-22.53318-10.05156-22.53318-22.53317 0-12.48162 10.05156-22.53318 22.53318-22.53318h57.4375l73.5642-127.46708-22.97501-39.87489c-6.18557-10.82476-2.5405-24.5214 8.28426-30.81743 10.82476-6.18558 24.5214-2.5405 30.81743 8.28426zm-86.92946 240.7957-21.64952 37.55529c-6.18558 10.82476-19.99267 14.46984-30.81743 8.28426s-14.46983-19.99267-8.28426-30.81743l16.12669-27.8351c18.1149-5.6333 32.91611-1.32548 44.62452 12.81298zm186.56144-68.15181h58.65254c12.48161 0 22.53317 10.05156 22.53317 22.53317 0 12.48162-10.05156 22.53318-22.53317 22.53318h-32.58474l21.98089 38.10758c6.18558 10.82476 2.5405 24.52139-8.28426 30.81743-10.82476 6.18558-24.52139 2.5405-30.81743-8.28426-37.00301-64.17537-64.83811-112.22405-83.28438-144.25651-18.88811-32.58474-5.41238-65.27993 7.95288-76.32561 14.8012 25.40505 36.89255 63.73354 66.3845 114.87502zm-99.52152-297.34956c-151.32574 0-273.93273 122.60699-273.93273 273.93273s122.60699 273.93273 273.93273 273.93273 273.93273-122.60699 273.93273-273.93273-122.60699-273.93273-273.93273-273.93273zm238.58657 273.93273c0 131.11215-106.14894 238.58657-238.58657 238.58657-131.11216 0-238.58657-106.14894-238.58657-238.58657 0-131.11216 106.14893-238.58657 238.58657-238.58657 131.11215 0 238.58657 106.14893 238.58657 238.58657z" stroke-width="1.10457"/><g stroke-width="1.47569"><path d="m68.677389 665.47889h-168.228376l-26.562373 48.69768h-30.98944l123.957751-212.499h35.4165l123.957749 212.499h-30.989436zm-13.281188-22.13532-70.833-123.95775-70.833 123.95775z"/><path d="m250.18695 550.37526q26.56238 0 45.1007 4.01203 18.53833 4.01202 30.15937 13.69622 11.62104 9.6842 16.87817 26.00899 5.25714 16.18645 5.25714 40.67364 0 24.07215-5.25714 39.98191-5.25713 15.90976-16.87817 25.31726-11.62104 9.40751-30.15937 13.28119-18.53832 3.87368-45.1007 3.87368-18.95336 0-31.68116-2.07519-12.72781-2.07518-20.8902-5.11879-8.02405-3.18195-12.31277-6.77894-4.15037-3.59698-5.94887-6.77894v70.833h-26.56237v-212.499h26.56237v14.80299q1.7985-2.76691 5.94887-6.08721 4.28872-3.45864 12.31277-6.3639 8.16239-2.90526 20.8902-4.8421 12.7278-1.93684 31.68116-1.93684zm0 22.13531q-13.28118 0-23.65711.69173-10.37593.69173-18.26163 2.90526-7.88571 2.07519-13.41954 6.22556-5.39548 4.01202-8.85412 10.92931-3.45865 6.77894-5.11879 16.87818-1.52181 10.09923-1.52181 24.21049 0 14.24961 1.52181 24.48719 1.66014 10.23759 5.11879 17.15487 3.45864 6.77894 8.85412 10.92931 5.53383 4.01203 13.41954 6.22556 7.8857 2.07518 18.26163 2.76691 10.37593.55338 23.65711.55338 15.49472 0 26.70072-.96842 11.34435-.96842 19.23006-3.45864 7.8857-2.49022 12.7278-6.91728 4.98045-4.42707 7.60902-11.20601 2.76691-6.91728 3.59698-16.46313.96842-9.6842.96842-22.6887 0-13.0045-.96842-22.68869-.83007-9.6842-3.59698-16.60149-2.62857-6.91728-7.60902-11.34435-4.8421-4.42706-12.7278-7.05563-7.88571-2.62857-19.23006-3.59699-11.206-.96842-26.70072-.96842z"/><path d="m475.96714 550.37526q26.56237 0 45.10069 4.01203 18.53833 4.01202 30.15937 13.69622 11.62104 9.6842 16.87817 26.00899 5.25714 16.18645 5.25714 40.67364 0 24.07215-5.25714 39.98191-5.25713 15.90976-16.87817 25.31726-11.62104 9.40751-30.15937 13.28119-18.53832 3.87368-45.10069 3.87368-18.95337 0-31.68117-2.07519-12.72781-2.07518-20.8902-5.11879-8.02405-3.18195-12.31277-6.77894-4.15037-3.59698-5.94886-6.77894v70.833h-26.56238v-212.499h26.56238v14.80299q1.79849-2.76691 5.94886-6.08721 4.28872-3.45864 12.31277-6.3639 8.16239-2.90526 20.8902-4.8421 12.7278-1.93684 31.68117-1.93684zm0 22.13531q-13.28119 0-23.65712.69173-10.37593.69173-18.26163 2.90526-7.88571 2.07519-13.41954 6.22556-5.39548 4.01202-8.85412 10.92931-3.45864 6.77894-5.11879 16.87818-1.5218 10.09923-1.5218 24.21049 0 14.24961 1.5218 24.48719 1.66015 10.23759 5.11879 17.15487 3.45864 6.77894 8.85412 10.92931 5.53383 4.01203 13.41954 6.22556 7.8857 2.07518 18.26163 2.76691 10.37593.55338 23.65712.55338 15.49471 0 26.70072-.96842 11.34434-.96842 19.23005-3.45864 7.8857-2.49022 12.7278-6.91728 4.98045-4.42707 7.60902-11.20601 2.76691-6.91728 3.59699-16.46313.96842-9.6842.96842-22.6887 0-13.0045-.96842-22.68869-.83008-9.6842-3.59699-16.60149-2.62857-6.91728-7.60902-11.34435-4.8421-4.42706-12.7278-7.05563-7.88571-2.62857-19.23005-3.59699-11.20601-.96842-26.70072-.96842z"/><path d="m809.10356 594.64589q21.85862 0 37.49169 1.79849 15.63306 1.7985 26.28568 5.39548 10.79096 3.45865 17.15487 8.71578 6.3639 5.25714 9.82254 12.03608 3.45864 6.64059 4.42706 14.94133 1.10677 8.30075 1.10677 17.98495 0 9.6842-1.7985 18.26163-1.66014 8.43909-6.08721 15.49472-4.42706 7.05563-12.03607 12.58946-7.60902 5.53383-19.3684 9.4075-11.75939 3.87368-28.36087 5.81052-16.46314 2.07519-38.59845 2.07519h-35.4165q-19.92178 0-34.86312-1.5218-14.94133-1.52181-25.7323-4.56541-10.79096-3.18195-17.8466-7.88571-7.05563-4.8421-11.34434-11.206-4.15037-6.50225-5.81052-14.66464-1.66015-8.30074-1.66015-18.26164h26.56237q0 12.45112 3.59699 19.50675 3.59699 7.05563 11.89773 10.65262 8.30075 3.45864 21.72028 4.42706 13.55788.83007 33.47966.83007h35.4165q23.24208 0 38.59845-2.21353 15.35637-2.21353 24.48719-7.05563 9.13082-4.8421 12.86615-12.58946 3.73533-7.8857 3.73533-19.0917 0-11.20601-2.62856-18.67667-2.49023-7.47067-10.09924-11.89773-7.47067-4.42707-21.16689-6.22556-13.69623-1.93684-35.83154-1.93684h-36.52327q-24.34884 0-41.7804-1.79849-17.29321-1.7985-29.0526-5.1188-11.75938-3.45864-18.81501-8.43908-7.05563-5.11879-10.79097-11.62104-3.59699-6.50225-4.70375-14.38796-1.10677-8.02405-1.10677-17.29321 0-9.6842 1.66015-17.98494 1.7985-8.30074 6.50225-14.94134 4.70375-6.77894 12.86615-12.03607 8.1624-5.25714 20.8902-8.71578 12.86615-3.59699 30.85109-5.39548 17.98494-1.7985 42.33379-1.7985h26.56237q19.92179 0 34.86312 1.5218 14.94134 1.38346 25.7323 4.56541 10.79097 3.04361 17.8466 7.74736 7.19397 4.56541 11.34435 11.06766 4.28871 6.3639 5.94886 14.5263 1.66015 8.16239 1.66015 18.12328h-26.56238q0-12.45111-3.59698-19.50674-3.59699-7.05563-11.89773-10.51427-8.30075-3.59699-21.85863-4.42707-13.55787-.96842-33.47966-.96842h-26.56237q-26.56238 0-43.71724 1.93684-17.15487 1.7985-27.11576 6.22556-9.96089 4.42706-13.83457 11.89773-3.87368 7.47067-3.87368 18.67667 0 6.91729.96842 12.31277.96842 5.39548 3.87368 9.54585 3.0436 4.01203 8.43909 6.77894 5.39548 2.76692 14.2496 4.56541 8.85413 1.79849 21.58193 2.62857 12.86615.69173 30.5744.69173z"/><path d="m1095.7559 643.34357q0 20.33682-3.3203 34.03305-3.3203 13.55788-11.206 21.72027-7.7474 8.1624-20.4752 11.62104-12.7278 3.45864-31.4045 3.45864-18.1232 0-30.43601-2.76691-12.31276-2.76691-19.92178-9.40751-7.60901-6.64059-10.92931-17.70825-3.32029-11.06765-3.32029-27.66914v-79.96381h-32.78794v-21.85863h32.78794v-43.57889h26.56237v43.57889h100.02392v21.85863h-100.02392v79.96381q0 13.28119 1.93684 20.47517 2.07519 7.19397 6.50225 10.51427 4.42703 3.3203 11.62103 3.87368 7.3323.55338 17.8466.55338 8.3007 0 14.803-.27669 6.6406-.27669 11.4827-1.66015 4.9804-1.5218 8.4391-4.42706 3.4586-3.04361 5.5338-8.43909 2.2135-5.39548 3.182-13.55788.9684-8.30074.9684-20.33682z"/><path d="m1117.8912 633.38268q0-24.48719 5.2571-40.53529 5.2571-16.0481 16.8782-25.45561 11.621-9.4075 30.1593-13.14284 18.5384-3.87368 45.1007-3.87368 26.5624 0 45.1007 3.87368 18.5384 3.73534 30.1594 13.14284 11.621 9.40751 16.8782 25.45561 5.2571 16.0481 5.2571 40.53529 0 24.48719-5.2571 40.67364-5.2572 16.18645-16.8782 25.7323-11.621 9.54586-30.1594 13.55788-18.5383 3.87368-45.1007 3.87368-26.5623 0-45.1007-3.87368-18.5383-4.01202-30.1593-13.55788-11.6211-9.54585-16.8782-25.7323-5.2571-16.18645-5.2571-40.67364zm26.5623 0q0 13.28119.9685 23.10374.9684 9.82254 3.5969 16.87817 2.767 7.05563 7.6091 11.4827 4.8421 4.42706 12.7278 7.05563 7.8857 2.62856 19.0917 3.59698 11.3443.96842 26.839.96842 13.2812 0 23.6571-.55338 10.5143-.69173 18.2617-2.90526 7.8857-2.21353 13.4195-6.22555 5.5338-4.15038 8.8541-11.20601 3.4587-7.05563 4.9805-17.29321 1.6601-10.37593 1.6601-24.90223 0-14.2496-1.6601-24.21049-1.5218-10.09924-4.9805-16.87818-3.3203-6.77894-8.8541-10.65262-5.5338-4.01202-13.4195-5.94886-7.7474-2.07519-18.2617-2.62857-10.3759-.55339-23.6571-.55339-13.2812 0-23.7954.55339-10.376.55338-18.2617 2.62857-7.7473 1.93684-13.2811 5.94886-5.5339 3.87368-8.9925 10.65262-3.3203 6.77894-4.9805 16.87818-1.5218 9.96089-1.5218 24.21049z"/><path d="m1480.9103 606.68196q0-9.96089-1.5218-16.46314-1.3835-6.64059-6.7789-10.51427-5.3955-4.01202-16.0481-5.53383-10.5143-1.66015-28.7759-1.66015-17.8466 0-29.0526 3.18196-11.206 3.0436-17.5699 8.71577-6.3639 5.67218-8.7158 13.55788-2.2136 7.88571-2.2136 17.56991v98.64048h-26.5623v-159.37425h26.5623v25.31727q1.3835-4.28872 5.1188-9.40751 3.7354-5.25714 11.3444-9.6842 7.609-4.56541 19.6451-7.60901 12.1744-3.04361 30.2977-3.04361 20.7518 0 33.7563 3.73534 13.0045 3.59698 20.1985 10.79096 7.3323 7.05563 9.8226 17.5699 2.6285 10.51428 2.6285 24.2105z"/><path d="m1613.7222 717.22018q-26.5624 0-45.1007-3.59699-18.5383-3.73533-30.1594-12.7278-11.621-8.99247-16.8781-24.07216-5.2572-15.07968-5.2572-37.90672 0-26.14734 5.2572-43.16386 5.2571-17.15486 16.8781-27.2541 11.6211-10.09924 30.1594-14.11126 18.5383-4.01203 45.1007-4.01203 18.9534 0 32.7879 2.76692 13.9729 2.76691 23.7955 8.02405 9.9609 5.25713 16.0481 12.7278 6.2256 7.47067 9.6842 15.77141 3.597 8.1624 4.8421 19.23005 1.3835 11.06766 1.3835 23.38043l-2.2136 8.85412h-157.1607q0 18.26164 3.597 30.02102 3.597 11.62104 11.8977 17.01652 8.3008 5.39548 21.8586 6.91729 13.5579 1.38345 33.4797 1.38345 18.2616 0 30.1594-.96842 12.036-1.10676 19.0917-4.01202 7.0556-2.90526 9.8225-8.02405 2.9053-5.25714 2.9053-13.55788h26.5624q0 12.86615-4.5655 21.99697-4.427 8.99247-14.8029 14.66464-10.376 5.53383-27.3925 8.02405-16.8782 2.62857-41.7804 2.62857zm0-144.70961q-13.2812 0-23.7955.55339-10.3759.55338-18.2616 2.49022-7.7474 1.79849-13.2812 5.39548-5.5338 3.45864-8.9925 8.30074-3.3202 4.70376-4.9804 13.41954-1.5218 8.57743-1.5218 20.75185h132.8119q0-16.18644-3.4587-25.31726-3.4586-9.26916-10.9293-15.21803-7.4706-5.94886-19.23-8.16239-11.7594-2.21354-28.3609-2.21354z"/></g></g></svg>