<svg height="100" viewBox="0 0 500.00001 100" width="500" xmlns="http://www.w3.org/2000/svg"><g fill="#fff" transform="matrix(.17016153 0 0 .17016153 14.678367 6.447157)"><path d="m300 234.3-220.7-221.3 280.8 161.2zm-278.3-234.3c-13 6.8-21.7 19.2-21.7 35.3v441.3c0 16.1 8.7 28.5 21.7 35.3l256.6-256zm425.2 225.6-58.9-34.1-65.7 64.5 65.7 64.5 60.1-34.1c18-14.3 18-46.5-1.2-60.8zm-367.6 273.4 280.8-161.2-60.1-60.1z"/><g stroke-width="11.0153" transform="translate(40.539498)"><path d="m804.75045 186.74613q0-17.21133-3.72913-27.25127-3.72912-10.03994-12.33478-15.20334-8.60566-5.1634-22.66158-6.59768-14.05592-1.43427-34.70951-1.43427h-73.72186q-18.35874 0-30.98038 1.14742-12.47822 1.00399-20.6536 4.30283-8.17538 3.29884-12.62164 9.46623-4.44626 6.16739-6.45425 16.35076-2.00798 10.18337-2.29484 25.09985-.28686 14.77306-.28686 35.42665 0 20.6536.28686 35.57008.43028 14.77306 2.43827 24.95643 2.00799 10.18336 6.31082 16.35076 4.44626 6.16739 12.62164 9.46623 8.17538 3.29884 20.6536 4.44626 12.62164 1.00399 30.98038 1.00399h73.86529q16.0639 0 27.68155-.86057 11.61764-.86056 19.79302-3.15541 8.17538-2.29484 13.19536-6.31082 5.01997-4.01597 7.74509-10.03994 2.86856-6.16739 3.87255-14.62962 1.004-8.60567 1.004-20.07989v-13.76906h-110.43936v-22.94844h137.97748v36.7175q0 13.76907-1.72113 24.95643-1.72114 11.04393-6.1674 19.79302-4.30283 8.60567-11.61764 14.91649-7.31482 6.31082-18.50218 10.47022-11.18736 4.01598-26.67756 5.88054-15.49019 2.00799-36.14378 2.00799h-73.86529q-25.24328 0-42.59803-3.15541-17.21133-3.01198-28.39869-9.17938-11.18736-6.31082-17.35476-15.77705-6.02396-9.46623-8.89252-22.2313-2.72512-12.76506-3.15541-28.82897-.43028-16.0639-.43028-35.57008 0-19.50617.43028-35.57007.43029-16.06391 3.15541-28.82898 2.86856-12.76506 8.89252-22.23129 6.1674-9.46623 17.35476-15.63363 11.18736-6.31082 28.39869-9.3228 17.35475-3.15541 42.59803-3.15541h73.72186q20.65359 0 36.14379 2.00799 15.49019 1.86456 26.67755 5.88054 11.18737 3.87254 18.50218 9.89651 7.45824 6.02396 11.76107 14.19934 4.44626 8.17538 6.1674 18.50218 1.72113 10.3268 1.72113 22.94844z"/><path d="m864.41637 254.44402q0-25.38671 5.45025-42.02433 5.45026-16.63761 17.49819-26.3907 12.04793-9.75309 31.26724-13.62563 19.21932-4.01598 46.75744-4.01598 27.53813 0 46.75741 4.01598 19.2193 3.87254 31.2673 13.62563 12.0479 9.75309 17.4982 26.3907 5.4502 16.63762 5.4502 42.02433 0 25.3867-5.4502 42.16775-5.4503 16.78104-17.4982 26.67756-12.048 9.89651-31.2673 14.05591-19.21928 4.01598-46.75741 4.01598-27.53812 0-46.75744-4.01598-19.21931-4.1594-31.26724-14.05591-12.04793-9.89652-17.49819-26.67756-5.45025-16.78105-5.45025-42.16775zm27.53812 0q0 13.76906 1.004 23.95243 1.00399 10.18337 3.72912 17.49818 2.86855 7.31481 7.88852 11.9045 5.01998 4.58969 13.19536 7.31482 8.17538 2.72512 19.79302 3.72912 11.76108 1.00399 27.82498 1.00399 13.76906 0 24.52614-.57371 10.90047-.71714 18.93247-3.01198 8.1754-2.29485 13.9125-6.45425 5.7371-4.30283 9.1794-11.61765 3.5857-7.31481 5.1634-17.92846 1.7211-10.75708 1.7211-25.81699 0-14.77306-1.7211-25.09986-1.5777-10.47022-5.1634-17.49818-3.4423-7.02796-9.1794-11.04393-5.7371-4.15941-13.9125-6.1674-8.032-2.15141-18.93247-2.72512-10.75708-.57371-24.52614-.57371-13.76906 0-24.66957.57371-10.75708.57371-18.93246 2.72512-8.03195 2.00799-13.76906 6.1674-5.73711 4.01597-9.3228 11.04393-3.44227 7.02796-5.1634 17.49818-1.57771 10.3268-1.57771 25.09986z"/><path d="m1093.9008 254.44402q0-25.38671 5.4502-42.02433 5.4503-16.63761 17.4982-26.3907 12.0479-9.75309 31.2673-13.62563 19.2193-4.01598 46.7574-4.01598 27.5381 0 46.7574 4.01598 19.2194 3.87254 31.2673 13.62563 12.0479 9.75309 17.4982 26.3907 5.4502 16.63762 5.4502 42.02433 0 25.3867-5.4502 42.16775-5.4503 16.78104-17.4982 26.67756-12.0479 9.89651-31.2673 14.05591-19.2193 4.01598-46.7574 4.01598-27.5381 0-46.7574-4.01598-19.2194-4.1594-31.2673-14.05591-12.0479-9.89652-17.4982-26.67756-5.4502-16.78105-5.4502-42.16775zm27.5381 0q0 13.76906 1.004 23.95243 1.004 10.18337 3.7291 17.49818 2.8686 7.31481 7.8885 11.9045 5.02 4.58969 13.1954 7.31482 8.1754 2.72512 19.793 3.72912 11.7611 1.00399 27.825 1.00399 13.7691 0 24.5261-.57371 10.9005-.71714 18.9325-3.01198 8.1754-2.29485 13.9125-6.45425 5.7371-4.30283 9.1794-11.61765 3.5857-7.31481 5.1634-17.92846 1.7211-10.75708 1.7211-25.81699 0-14.77306-1.7211-25.09986-1.5777-10.47022-5.1634-17.49818-3.4423-7.02796-9.1794-11.04393-5.7371-4.15941-13.9125-6.1674-8.032-2.15141-18.9325-2.72512-10.757-.57371-24.5261-.57371-13.7691 0-24.6696.57371-10.7571.57371-18.9324 2.72512-8.032 2.00799-13.7691 6.1674-5.7371 4.01597-9.3228 11.04393-3.4423 7.02796-5.1634 17.49818-1.5777 10.3268-1.5777 25.09986z"/><path d="m1424.3583 191.33582q-16.0639 0-27.825 1.00399-11.6177 1.00399-19.793 3.58569-8.1754 2.5817-13.3388 7.17139-5.02 4.58969-7.8885 11.76107-2.7252 7.17139-3.7292 17.35476-.8605 10.03994-.8605 23.66557 0 13.48221.8605 23.52215 1.004 9.89651 3.7292 17.0679 2.8685 7.02796 7.8885 11.61765 5.1634 4.58968 13.3388 7.17138 8.1753 2.5817 19.793 3.5857 11.7611 1.00399 27.825 1.00399 13.769 0 24.5261-.57371 10.7571-.71714 18.9325-2.86855 8.1754-2.29485 13.769-6.45425 5.7371-4.30283 9.3228-11.33079 3.5857-7.17139 5.1634-17.64161 1.7212-10.61366 1.7212-25.53014 0-14.91648-1.7212-25.53014-1.5777-10.61365-5.1634-17.64161-3.5857-7.17138-9.3228-11.33079-5.5936-4.1594-13.769-6.31082-8.1754-2.15141-18.9325-2.72512-10.7571-.57371-24.5261-.57371zm100.9731 123.92155q0 24.09586-5.4503 40.01634-5.4502 15.92048-17.4981 25.67356-12.048 9.89652-31.2673 13.76907-19.2193 3.87254-46.7574 3.87254-25.817 0-43.4586-2.29484-17.4982-2.29484-28.2553-7.31481-10.7571-4.87655-15.4902-12.76507-4.5897-7.7451-4.5897-18.93246h27.5381q0 5.59368 2.8686 9.17937 3.012 3.5857 10.3268 5.59368 7.3148 2.00799 19.6496 2.72513 12.4782.86057 31.4107.86057 20.6536 0 34.7095-1.57771 14.0559-1.43427 22.6616-7.02796 8.6056-5.59368 12.3347-16.92447 3.7292-11.33079 3.7292-30.26325-2.008 3.44227-6.4543 7.45824-4.3028 4.01598-12.765 7.45825-8.3189 3.44226-21.5142 5.7371-13.1954 2.29485-32.7015 2.29485-27.5382 0-46.7575-4.15941-19.2193-4.01597-31.2672-13.91249-12.0479-9.89651-17.4982-26.67755-5.4502-16.78105-5.4502-42.16776 0-25.81699 5.4502-42.74146 5.4503-16.92447 17.4982-26.82099 12.0479-9.89651 31.2672-13.91248 19.2193-4.01598 46.7575-4.01598 19.5061 0 32.7015 2.00799 13.1953 2.00799 21.5142 5.01997 8.4622 3.01198 12.765 6.59767 4.4463 3.44227 6.4543 6.31082v-15.34676h27.5381z"/><path d="m1571.2282 117.90082h27.5382v220.30499h-27.5382z"/><path d="m1741.0466 341.36122q-27.5381 0-46.7574-3.72912-19.2193-3.87255-31.2673-13.19535-12.0479-9.3228-17.4981-24.95643-5.4503-15.63362-5.4503-39.29919 0-27.10785 5.4503-44.74946 5.4502-17.78503 17.4981-28.25526 12.048-10.47022 31.2673-14.62963 19.2193-4.1594 46.7574-4.1594 19.6496 0 33.9924 2.86855 14.4862 2.86856 24.6696 8.31881 10.3268 5.45026 16.6376 13.19535 6.4542 7.7451 10.0399 16.35076 3.7291 8.46224 5.02 19.93646 1.4343 11.47422 1.4343 24.23928l-2.2949 9.17938h-162.9339q0 18.93246 3.7292 31.12382 3.7291 12.04793 12.3347 17.64161 8.6057 5.59368 22.6616 7.17138 14.0559 1.43428 34.7095 1.43428 18.9325 0 31.2673-1.00399 12.4782-1.14742 19.793-4.15941 7.3148-3.01198 10.1834-8.31881 3.0119-5.45025 3.0119-14.05591h27.5382q0 13.33878-4.7331 22.80501-4.5897 9.3228-15.3468 15.20334-10.7571 5.7371-28.3987 8.3188-17.4982 2.72513-43.3152 2.72513zm0-150.0254q-13.769 0-24.6695.57371-10.7571.57371-18.9325 2.5817-8.032 1.86456-13.7691 5.59368-5.7371 3.58569-9.3228 8.60566-3.4422 4.87654-5.1634 13.91249-1.5777 8.89252-1.5777 21.51416h137.6906q0-16.78104-3.5856-26.24727-3.5857-9.60966-11.3308-15.77705-7.7451-6.1674-19.9365-8.46224-12.1913-2.29484-29.4027-2.29484z"/><path d="m1942.993 117.90082h165.5156q20.5101 0 34.566 1.86456 14.1994 1.72113 23.3788 5.30682 9.1793 3.5857 14.0559 8.89252 5.0199 5.30683 7.3148 12.47822 2.2948 7.17138 2.5817 16.0639.4303 8.89252.4303 19.6496 0 11.18736-.5737 20.65359-.4303 9.46623-3.2989 17.21133-2.7251 7.60167-8.8925 13.48221-6.024 5.73711-17.3547 9.60966-11.1874 3.87254-28.5422 5.88053-17.2113 2.00799-42.4546 2.00799h-119.1884v87.20406h-27.5381zm27.5381 110.15249h119.1884q18.3588 0 30.837-.57371 12.6216-.71714 20.797-2.43827 8.1754-1.72113 12.6216-4.87654 4.4463-3.15541 6.4543-8.31881 2.1514-5.1634 2.4383-12.33478.4303-7.31482.4303-17.35476 0-9.3228-.4303-16.0639-.2869-6.74111-2.4383-11.3308-2.008-4.58968-6.4543-7.31481-4.4462-2.72513-12.6216-4.1594-8.1754-1.57771-20.797-2.00799-12.4782-.43029-30.837-.43029h-119.1884z"/><path d="m2227.5535 117.90082h27.5381v220.30499h-27.5381z"/><path d="m2465.5001 315.54423q-.4303 1.72113-6.4542 8.60566-4.3029 5.1634-11.4743 9.17938-7.1713 3.87255-19.2193 6.02396-11.9045 2.29485-31.4106 2.29485-25.9605 0-44.3192-2.72513-18.3588-2.5817-29.9764-8.03195-11.6176-5.59369-17.0679-14.19935-5.3068-8.60566-5.3068-20.51016 0-12.47822 2.8685-21.08388 3.012-8.74909 8.6057-14.62963 5.7371-5.88054 13.7691-9.17937 8.0319-3.29884 18.2153-5.01997 10.3268-1.72114 22.5181-2.15142 12.1914-.43028 25.9604-.43028 19.6496 0 32.845 1.72113 13.1953 1.5777 21.5142 4.1594 8.4622 2.43828 12.765 5.30683 4.3029 2.86855 6.1674 5.30683 0-16.06391-1.4343-27.3947-1.2908-11.33079-4.4462-18.93246-3.012-7.60167-7.8885-12.04793-4.8766-4.58969-12.048-6.88453-7.0279-2.29485-16.4942-2.86856-9.4662-.71713-21.6576-.71713-18.9324 0-31.4106 1.00399-12.4782.86057-19.7931 3.58569-7.3148 2.72513-10.3267 7.60167-3.012 4.73312-3.012 12.47821h-27.5382q0-13.05192 4.5897-22.08787 4.7331-9.03594 15.4902-14.62962 10.9005-5.73711 28.5421-8.31881 17.6417-2.5817 43.4586-2.5817 25.2433 0 42.7415 4.1594 17.4982 4.15941 28.2553 14.62963 10.9005 10.47023 15.6336 28.25526 4.8765 17.64161 4.8765 44.74946v78.02468h-27.5381zm-63.9688 4.30283q18.2154 0 30.4067-1.72113 12.3348-1.72113 19.7931-5.1634 7.4582-3.44227 10.6136-8.60566 3.1554-5.1634 3.1554-12.04793 0-6.88453-3.7291-11.61765-3.5857-4.87654-12.1914-7.88852-8.4622-3.01199-22.5181-4.30284-14.0559-1.43427-34.7095-1.43427-20.6536 0-33.4187.71714-12.6216.71713-19.5062 3.29883-6.8845 2.5817-9.3228 7.60167-2.2948 5.01997-2.2948 13.62564 0 8.60566 2.4383 14.05591 2.5817 5.30683 10.3268 8.31881 7.7451 3.01199 22.2313 4.15941 14.6296 1.00399 38.7254 1.00399z"/><path d="m2607.7804 338.20581h9.1794q-2.2949 4.58969-4.1594 8.74909-1.7212 4.15941-4.3029 7.7451-2.5817 3.58569-6.4542 6.45425-3.8726 2.86855-10.3268 4.87654-6.3108 2.15142-15.777 3.15541-9.4663 1.14742-23.2353 1.14742v22.94844q16.0639 0 27.8249-1.57771 11.7611-1.43427 20.2233-4.30283 8.6057-2.72513 14.4862-6.7411 5.8806-4.01598 10.1834-9.17938 4.3028-5.01997 7.6017-11.18736 3.4423-6.02396 6.8845-12.90849l4.5897-9.17938 82.6144-165.22874h-32.1278l-68.8453 146.86999-73.435-146.86999h-32.1279z"/></g></g></svg>