<svg height="100" viewBox="0 0 500.00001 100" width="500" xmlns="http://www.w3.org/2000/svg"><g transform="matrix(.13659473 0 0 .13659473 138.792304 8.202013)"><path d="m376 0v3.3c0 38.76-31.42 70.17-70.17 70.17-38.76 0-70.17-31.42-70.17-70.17 0-1.14 0-2.22 0-3.3h-235.66v612h612v-612z" fill="#fff"/><path d="m142.16 329.81h40.56l27.69 147.47h.5l33.28-147.47h37.94l30.06 149.28h.59l31.56-149.28h39.78l-51.69 216.69h-40.25l-29.81-147.47h-.78l-31.91 147.47h-41zm287.69 0h63.94l63.5 216.69h-41.84l-13.81-48.22h-72.84l-10.66 48.22h-40.75zm24.34 53.41-17.69 79.5h55.06l-20.31-79.5z" fill="#654ff0"/></g><g fill="#fff" stroke-width="1.87099" transform="translate(111.22955)"><path d="m133.62805 31.61446c2.45141-.731763 5.37846-1.097644 8.78116-1.097644 3.00023 0 5.36016.420764 7.0798 1.262291 1.75623.841527 3.01852 2.25017 3.78687 4.225929.80494 1.975759 1.20741 4.719869 1.20741 8.23233 0 3.549049-.36588 6.348041-1.09764 8.396976-.73177 2.012347-1.866 3.457579-3.4027 4.335694-1.50011.841527-3.47587 1.262291-5.92728 1.262291-.80494 0-1.73794-.05488-2.79899-.164647-1.06105-.109765-1.95746-.237823-2.68923-.384175v11.799672h-4.9394zm8.78116 22.776113c1.71964 0 3.09169-.292705 4.11616-.878116 1.02447-.621998 1.77452-1.66476 2.25017-3.128285.51223-1.463525.76835-3.512461.76835-6.146806s-.25612-4.683281-.76835-6.146806c-.47565-1.463525-1.2257-2.487993-2.25017-3.073403-1.02447-.621999-2.39652-.932998-4.11616-.932998h-3.84176v20.306414z"/><path d="m164.08766 69.483177-6.31145-38.417539h4.9394l4.9394 29.636387h.27441l6.03704-22.501701h4.9394l6.03704 22.501701h.27441l4.9394-29.636387h4.93939l-6.31145 38.417539h-6.03704l-6.20169-23.050523h-.21953l-6.20169 23.050523z"/><path d="m196.19368 69.483177 9.32998-38.417539h7.13468l9.32998 38.417539h-4.9394l-2.4697-9.878796h-10.97644l-2.4697 9.878796zm8.23233-13.720549h9.32998l-4.55523-19.20877h-.21953z"/><path d="m224.18351 69.483177 9.32998-38.417539h7.13468l9.32998 38.417539h-4.9394l-2.4697-9.878796h-10.97644l-2.4697 9.878796zm8.23233-13.720549h9.32998l-4.55523-19.20877h-.21952z"/></g></svg>